<svg xmlns="http://www.w3.org/2000/svg" width="50" height="50" viewBox="0 0 50 50" fill="gray">
    <path id="logo" fill-rule="evenodd" d="M41.165 28.727c0 1.18-.96 2.14-2.14 2.14h-4.21a.392.392 0 0 1 0-.785h4.21c.748 0 1.355-.608 1.355-1.355v-7.454c0-.747-.607-1.355-1.354-1.355a.393.393 0 0 1 0-.784c1.18 0 2.139.96 2.139 2.139v7.454zm-7.522 1.793l-.057-.004a.395.395 0 0 1-.33-.454c.002-.01.18-1.076.853-3.14.923-2.832.136-6.497-.23-7.22a.39.39 0 0 1 .173-.526.392.392 0 0 1 .527.172c.414.818 1.284 4.723.276 7.816-.636 1.954-.824 3.02-.826 3.03a.391.391 0 0 1-.386.326zm-.99.346h-.748c-.472 0-.88.323-1.013.804-.088.32-.443 1.41-.513 1.625a.393.393 0 1 1-.747-.238l.028-.084c.266-.82.426-1.329.477-1.512.228-.825.939-1.379 1.768-1.379h.748a.392.392 0 0 1 0 .784zm-1.787 6.953a.393.393 0 0 1-.784 0v-3.391a.392.392 0 0 1 .784 0v3.391zm-2.139 3.346h-6.999a.393.393 0 0 1-.336-.595l1.06-1.757a.393.393 0 0 1 .538-.132.393.393 0 0 1 .133.538l-.7 1.161h.859l1.376-2.471a.392.392 0 1 1 .684.381l-1.163 2.09h4.548c.747 0 1.355-.607 1.355-1.354a.393.393 0 0 1 .784 0c0 1.18-.96 2.139-2.139 2.139zm-8.423-.698a.39.39 0 0 1-.312-.63c.022-.027 2.143-2.84 3.152-5.59.743-2.024 2.714-7.796 2.904-10.161l.009-.113c.041-.485.098-1.15-.202-1.499-.14-.164-.362-.255-.676-.277a1.556 1.556 0 0 0-.106-.003c-.76 0-.964.607-1.132 1.97l-.04.314c-.11.808-.448 2.918-1.2 5.056a.393.393 0 0 1-.74-.26c.729-2.071 1.056-4.118 1.162-4.902l.04-.304c.13-1.06.328-2.659 1.897-2.659.056 0 .114.002.174.007.526.036.935.22 1.216.548.514.599.438 1.487.388 2.075l-.009.11c-.196 2.45-2.195 8.315-2.949 10.368-1.057 2.878-3.174 5.678-3.263 5.795a.39.39 0 0 1-.313.155zm2.55-9.504c1.058-2.408 1.841-7.723 1.849-7.775a.394.394 0 0 1 .444-.332c.214.031.363.23.332.444-.033.224-.813 5.486-1.908 7.978a.391.391 0 1 1-.717-.315zm-3.328 7.808a.393.393 0 0 1-.392-.392v-6.473c0-.592-.482-1.074-1.074-1.074a.392.392 0 0 1 0-.784 1.86 1.86 0 0 1 1.858 1.858v5.257c.915-1.49 1.897-3.798 2.176-4.66a.39.39 0 0 1 .494-.253.393.393 0 0 1 .252.494c-.308.953-1.803 4.54-3.022 5.898a.396.396 0 0 1-.292.13zm-2.96-8.251a.394.394 0 0 1-.373-.512c.158-.49 1.546-4.875 1.863-7.786.252-2.325 2.064-6.26 7.255-6.26.107 0 .215.002.324.006.078.002 1.913.066 3.611 1.27a.389.389 0 0 1 .093.546.392.392 0 0 1-.546.094c-1.498-1.062-3.165-1.126-3.181-1.127a9.459 9.459 0 0 0-.28-.004c-4.651 0-6.272 3.495-6.497 5.56-.321 2.952-1.735 7.438-1.895 7.94a.392.392 0 0 1-.373.273zm-1.738.346a.39.39 0 0 1-.352-.563c.183-.379.98-2.672 1.192-3.374.421-1.393.663-2.817.897-4.194l.005-.032c.096-.562.19-1.12.297-1.672a6.02 6.02 0 0 1 .343-1.113h-6.236c-.747 0-1.355.608-1.355 1.355v7.454c0 .747.608 1.355 1.355 1.355h2.462a.392.392 0 0 1 0 .784h-2.462c-1.18 0-2.139-.96-2.139-2.139v-7.454c0-1.18.96-2.14 2.14-2.14h6.67l.06.012a.385.385 0 0 1 .271.03.393.393 0 0 1 .174.526 5.68 5.68 0 0 0-.513 1.478 77.12 77.12 0 0 0-.298 1.683c-.238 1.403-.484 2.853-.92 4.295-.202.665-1.027 3.053-1.238 3.488a.394.394 0 0 1-.353.22zm-2.44-8.412c-.073.957-.109 2.305-.137 3.388-.017.63-.032 1.197-.05 1.496a.392.392 0 0 1-.39.369h-.022a.394.394 0 0 1-.37-.416c.016-.27.03-.775.045-1.359l.002-.083c.03-1.105.066-2.471.14-3.453a.395.395 0 0 1 .392-.363c.243.018.406.206.39.421zm1.131.032c-.025.164-.086.58-.137 1.061a.391.391 0 0 1-.39.351l-.035-.002a.391.391 0 0 1-.355-.43c.064-.608.143-1.098.144-1.103a.39.39 0 0 1 .448-.325.39.39 0 0 1 .326.448zm-.248-1.109h-1.352c-.302.001-.56.002-.719.07-.065.028-.165.07-.165.355l-.001 6.103c-.005.283-.01.67.097.778.042.043.141.05.197.05.161 0 .31.009.444.017.113.007.205.014.282.014.2 0 .262-.015.36-.343.134-.441.813-2.724 1.14-4.41l.006-.034c.051-.243.38-1.81.495-2.383a.393.393 0 0 1 .462-.308c.21.042.349.249.307.46-.125.624-.502 2.42-.502 2.42-.345 1.78-1.075 4.21-1.156 4.481-.24.793-.707.9-1.133.9-.103 0-.208-.007-.311-.014-.12-.008-.25-.016-.394-.016-.316 0-.57-.095-.755-.283-.337-.342-.33-.848-.323-1.338l.001-.187v-5.907c0-.662.348-.95.64-1.075.274-.118.595-.134.902-.134h1.478a.392.392 0 0 1 0 .784zm.577 8.17a.392.392 0 0 1-.36-.547c.931-2.161 1.287-4.24 1.63-6.252.098-.575.196-1.146.305-1.717a.393.393 0 0 1 .77.148 82.184 82.184 0 0 0-.302 1.699c-.352 2.06-.715 4.185-1.682 6.432a.393.393 0 0 1-.361.237zm5.286-18.573c0-1.18.96-2.139 2.139-2.139h.964a.392.392 0 0 1 0 .784h-.964c-.747 0-1.355.608-1.355 1.355v5.473a8.525 8.525 0 0 1 1.023-.758.393.393 0 0 1 .539.13.39.39 0 0 1-.13.539c-.167.102-.766.49-1.47 1.185a.389.389 0 0 1-.276.113h-.01l-.03-.005-.02.003a.394.394 0 0 1-.41-.39v-6.29zm5.337-2.139h4.256c1.18 0 2.14.96 2.14 2.14v7.085c0 .592.48 1.074 1.072 1.074a.392.392 0 0 1 0 .784 1.86 1.86 0 0 1-1.857-1.858v-7.086c0-.747-.608-1.355-1.355-1.355h-4.256a.392.392 0 0 1 0-.784zm-1.826 6.171c.623-.254 1.398-.388 2.241-.388 1.461 0 3.063.397 4.395 1.088a.392.392 0 0 1-.36.696c-1.243-.645-2.662-1-3.997-1-.756 0-1.46.117-1.983.33a.391.391 0 0 1-.296-.726zm-.564-1.33a7.325 7.325 0 0 1 2.893-.587c1.757 0 3.023.603 3.076.629a.392.392 0 0 1-.34.706c-.01-.005-1.174-.544-2.753-.544-.902 0-1.766.174-2.568.517a.39.39 0 0 1-.515-.206.393.393 0 0 1 .207-.515zm3.997-2.815h-3.59c-1.061 0-1.15.472-1.15.915v2.489a.392.392 0 0 1-.784 0v-2.49c0-.634.251-1.698 1.933-1.698h3.591a.392.392 0 0 1 0 .784zm1.972 1.332a.388.388 0 0 1 .183.523.394.394 0 0 1-.523.184c-.046-.022-1.187-.544-2.752-.544-.902 0-1.766.174-2.569.517a.389.389 0 0 1-.515-.207.392.392 0 0 1 .207-.514 7.321 7.321 0 0 1 2.893-.588c1.757 0 3.023.604 3.076.63zm-.541-1.332a.393.393 0 0 1 0-.784c1.682 0 1.933 1.064 1.933 1.699v2.489a.392.392 0 0 1-.784 0v-2.49c0-.442-.09-.914-1.15-.914zm-8.673 17.303l-.264 1.197a.395.395 0 0 1-.383.308l-.073-.007a.393.393 0 0 1-.31-.47l.264-1.197a.395.395 0 0 1 .467-.298.393.393 0 0 1 .3.467zm11.299-1.191a.393.393 0 0 1-.385-.466c.027-.14.26-1.38.354-2.376.02-.217.447-5.315-4.481-5.889a6.373 6.373 0 0 0-.728-.043c-1.142 0-2.132.342-2.941 1.016-1.526 1.27-1.974 3.31-2.004 3.747-.056.835-.485 2.99-.836 4.191a.395.395 0 0 1-.376.282h-.016l-.079-.012a.395.395 0 0 1-.282-.49c.36-1.233.76-3.312.807-4.023.036-.536.528-2.836 2.284-4.298.955-.795 2.111-1.198 3.436-1.198.268 0 .545.017.826.05 2.178.253 3.763 1.358 4.583 3.195.741 1.66.606 3.358.588 3.546-.095 1-.32 2.21-.363 2.441a.396.396 0 0 1-.387.327zm-10.238 2.718a.391.391 0 1 1-.742-.254c.521-1.52 1.128-4.86 1.153-5a.393.393 0 0 1 .709-.16.39.39 0 0 1 .064.294c-.006.034-.62 3.474-1.184 5.12zm1.946.815a.389.389 0 0 1 .26.49c-.02.067-.513 1.667-1.19 3.073a.389.389 0 0 1-.523.183.39.39 0 0 1-.183-.524c.656-1.362 1.141-2.946 1.146-2.962a.39.39 0 0 1 .49-.26zm-1.057.508a.394.394 0 0 1-.502.235.393.393 0 0 1-.236-.501c.69-1.913 1.56-4.554 1.792-6.273.35-2.604.816-3.39 1.455-3.816a.389.389 0 0 1 .543.108.39.39 0 0 1-.109.544c-.357.239-.767.708-1.112 3.269-.24 1.785-1.128 4.484-1.83 6.434zm4.384 5.597c1.281-2.366 2.657-7.17 3.452-10.882.434-2.025.218-3.728-.607-4.797-.626-.811-1.586-1.251-2.852-1.308a4.917 4.917 0 0 0-.222-.005c-3.1 0-3.548 3.05-3.606 3.662a.394.394 0 0 1-.428.353.392.392 0 0 1-.352-.427c.07-.73.608-4.373 4.369-4.373.09 0 .18.003.274.007 1.508.068 2.664.61 3.438 1.612.969 1.254 1.236 3.187.753 5.44-.807 3.767-2.212 8.658-3.53 11.092a.391.391 0 0 1-.72-.075.388.388 0 0 1 .03-.299zm1.785-8.302c.208.058.33.275.272.483-.193.681-1.922 6.72-3.381 9.084a.389.389 0 0 1-.54.128.388.388 0 0 1-.175-.243.389.389 0 0 1 .047-.296c1.45-2.35 3.276-8.82 3.293-8.884a.395.395 0 0 1 .484-.272zm-.185-6.717c-.59-.525-1.402-.71-1.917-.71-.069 0-.132.003-.188.009l-.041.002a.393.393 0 0 1-.392-.349.393.393 0 0 1 .347-.433c.088-.01.184-.014.283-.014.68 0 1.674.238 2.429.909.634.562.974 1.335.983 2.234.014 1.472-.522 3.566-.583 3.8a.392.392 0 0 1-.38.293l-.085-.01a.393.393 0 0 1-.293-.483c.058-.228.57-2.247.557-3.592-.008-.682-.25-1.239-.72-1.656zm-.876 18.335a.39.39 0 0 1-.541.122.392.392 0 0 1-.122-.54c2.47-3.914 4.18-11.44 4.197-11.515a.39.39 0 0 1 .467-.297.39.39 0 0 1 .298.469c-.07.312-1.736 7.698-4.3 11.76zm3.83-5.367l-1.01 2.808a24.219 24.219 0 0 1-1.237 2.542.394.394 0 0 1-.534.149.39.39 0 0 1-.149-.535 23.27 23.27 0 0 0 1.19-2.44l1.003-2.79a.392.392 0 1 1 .738.266zm-.648 3.137a.394.394 0 0 1 .366-.418h.001c.23 0 .403.16.416.365.005.075.112 1.835-.943 2.416a.391.391 0 1 1-.378-.686c.512-.283.561-1.332.538-1.677zm3.276-13.421a35.293 35.293 0 0 1-.507 2.748l-.535 2.344a.392.392 0 0 1-.381.3l-.08-.008a.392.392 0 0 1-.301-.475l.182-.754.35-1.575a34.57 34.57 0 0 0 .494-2.684 6.66 6.66 0 0 0-.48-3.554.39.39 0 0 1 .205-.515.392.392 0 0 1 .515.206 7.431 7.431 0 0 1 .538 3.967zm1.037 1.862l-.707 3.244a.394.394 0 0 1-.382.308l-.072-.007a.395.395 0 0 1-.312-.468l.707-3.244a.394.394 0 0 1 .466-.3.393.393 0 0 1 .3.467zm-.686-6.36a.395.395 0 0 1 .506.226c.557 1.45.708 3.108.45 4.93a.394.394 0 0 1-.388.336l-.047-.002a.393.393 0 0 1-.341-.444c.239-1.688.102-3.215-.406-4.54a.393.393 0 0 1 .226-.506zm2.739-.645h2.352a.393.393 0 0 1 0 .784h-2.352a.392.392 0 0 1 0-.784zm2.337 8.886a.395.395 0 0 1-.377.281l-.016-.001-.079-.011a.396.396 0 0 1-.281-.49c.966-3.28.206-6.482.173-6.617a.392.392 0 1 1 .76-.192c.035.14.86 3.496-.18 7.03zm.712.744c.47 0 .48 0 .48-.75v-5.76a.393.393 0 0 1 .784 0v5.76c0 1.147-.319 1.534-1.264 1.534h-3.049a.392.392 0 0 1 0-.784h3.05zm-2.728-7.582a.392.392 0 1 1 .76-.192c.035.141.86 3.497-.18 7.03a.395.395 0 0 1-.377.281l-.016-.001-.08-.011a.395.395 0 0 1-.28-.49c.965-3.28.205-6.482.173-6.617zM25 0C11.193 0 0 11.193 0 25s11.193 25 25 25 25-11.193 25-25S38.807 0 25 0z"/>
</svg>
